<mxfile host="app.diagrams.net" modified="2021-12-03T07:46:04.783Z" agent="5.0 (Windows NT 10.0; Win64; x64) AppleWebKit/537.36 (KHTML, like Gecko) Chrome/96.0.4664.45 Safari/537.36" etag="vt79tGLJ6_qVrL8uT_hG" version="15.8.7" type="github">
  <diagram id="U-R1VXcgMTYOp4GlHzor" name="Page-1">
    <mxGraphModel dx="1109" dy="588" grid="1" gridSize="10" guides="1" tooltips="1" connect="1" arrows="1" fold="1" page="1" pageScale="1" pageWidth="2339" pageHeight="3300" math="0" shadow="0">
      <root>
        <mxCell id="0" />
        <mxCell id="1" parent="0" />
        <mxCell id="U4kdcHjhSib5QTSGowjK-14" value="" style="rounded=0;whiteSpace=wrap;html=1;" parent="1" vertex="1">
          <mxGeometry x="80" y="82" width="480" height="168" as="geometry" />
        </mxCell>
        <mxCell id="U4kdcHjhSib5QTSGowjK-10" value="" style="rounded=0;whiteSpace=wrap;html=1;" parent="1" vertex="1">
          <mxGeometry x="80" y="310" width="380" height="360" as="geometry" />
        </mxCell>
        <mxCell id="U4kdcHjhSib5QTSGowjK-1" value="Analysis VM" style="rounded=1;whiteSpace=wrap;html=1;" parent="1" vertex="1">
          <mxGeometry x="210" y="127" width="120" height="60" as="geometry" />
        </mxCell>
        <mxCell id="U4kdcHjhSib5QTSGowjK-2" value="&lt;h1&gt;Current Strategy&lt;/h1&gt;" style="text;html=1;strokeColor=none;fillColor=none;spacing=5;spacingTop=-20;whiteSpace=wrap;overflow=hidden;rounded=0;" parent="1" vertex="1">
          <mxGeometry x="70" y="30" width="230" height="40" as="geometry" />
        </mxCell>
        <mxCell id="U4kdcHjhSib5QTSGowjK-6" value="" style="edgeStyle=orthogonalEdgeStyle;rounded=0;orthogonalLoop=1;jettySize=auto;html=1;" parent="1" source="U4kdcHjhSib5QTSGowjK-3" target="U4kdcHjhSib5QTSGowjK-1" edge="1">
          <mxGeometry relative="1" as="geometry" />
        </mxCell>
        <mxCell id="U4kdcHjhSib5QTSGowjK-3" value="UAT" style="rounded=1;whiteSpace=wrap;html=1;" parent="1" vertex="1">
          <mxGeometry x="400" y="127" width="120" height="60" as="geometry" />
        </mxCell>
        <mxCell id="U4kdcHjhSib5QTSGowjK-7" value="" style="edgeStyle=orthogonalEdgeStyle;rounded=0;orthogonalLoop=1;jettySize=auto;html=1;" parent="1" source="U4kdcHjhSib5QTSGowjK-4" target="U4kdcHjhSib5QTSGowjK-5" edge="1">
          <mxGeometry relative="1" as="geometry" />
        </mxCell>
        <mxCell id="U4kdcHjhSib5QTSGowjK-4" value="&lt;b&gt;&lt;font color=&quot;#ff0000&quot;&gt;Production&lt;/font&gt;&lt;/b&gt;" style="rounded=1;whiteSpace=wrap;html=1;" parent="1" vertex="1">
          <mxGeometry x="540" y="370" width="120" height="60" as="geometry" />
        </mxCell>
        <mxCell id="U4kdcHjhSib5QTSGowjK-5" value="Analysis VM (offline) Mintech DB" style="rounded=1;whiteSpace=wrap;html=1;" parent="1" vertex="1">
          <mxGeometry x="210" y="370" width="120" height="60" as="geometry" />
        </mxCell>
        <mxCell id="U4kdcHjhSib5QTSGowjK-13" value="" style="endArrow=classic;html=1;rounded=0;entryX=0.5;entryY=1;entryDx=0;entryDy=0;" parent="1" target="U4kdcHjhSib5QTSGowjK-1" edge="1">
          <mxGeometry width="50" height="50" relative="1" as="geometry">
            <mxPoint x="270" y="350" as="sourcePoint" />
            <mxPoint x="320" y="300" as="targetPoint" />
          </mxGeometry>
        </mxCell>
        <mxCell id="U4kdcHjhSib5QTSGowjK-15" value="UAT Environment server Address: 10.56.224.15:3306" style="text;html=1;strokeColor=none;fillColor=none;align=center;verticalAlign=middle;whiteSpace=wrap;rounded=0;" parent="1" vertex="1">
          <mxGeometry x="80" y="82" width="190" height="30" as="geometry" />
        </mxCell>
        <mxCell id="U4kdcHjhSib5QTSGowjK-16" value="Production Environment server Address: 10.56.224.28:3306" style="text;html=1;strokeColor=none;fillColor=none;align=center;verticalAlign=middle;whiteSpace=wrap;rounded=0;" parent="1" vertex="1">
          <mxGeometry x="80" y="310" width="190" height="40" as="geometry" />
        </mxCell>
        <mxCell id="U4kdcHjhSib5QTSGowjK-17" value="Manually copied" style="text;html=1;strokeColor=none;fillColor=none;align=center;verticalAlign=middle;whiteSpace=wrap;rounded=0;" parent="1" vertex="1">
          <mxGeometry x="280" y="262" width="110" height="30" as="geometry" />
        </mxCell>
        <mxCell id="U4kdcHjhSib5QTSGowjK-22" style="edgeStyle=orthogonalEdgeStyle;rounded=0;orthogonalLoop=1;jettySize=auto;html=1;entryX=0.5;entryY=1;entryDx=0;entryDy=0;fontColor=#FF0000;" parent="1" source="U4kdcHjhSib5QTSGowjK-18" target="U4kdcHjhSib5QTSGowjK-5" edge="1">
          <mxGeometry relative="1" as="geometry" />
        </mxCell>
        <mxCell id="U4kdcHjhSib5QTSGowjK-18" value="TMB Monthly Update" style="rounded=1;whiteSpace=wrap;html=1;" parent="1" vertex="1">
          <mxGeometry x="110" y="530" width="120" height="60" as="geometry" />
        </mxCell>
        <mxCell id="U4kdcHjhSib5QTSGowjK-20" style="edgeStyle=orthogonalEdgeStyle;rounded=0;orthogonalLoop=1;jettySize=auto;html=1;" parent="1" source="U4kdcHjhSib5QTSGowjK-19" target="U4kdcHjhSib5QTSGowjK-5" edge="1">
          <mxGeometry relative="1" as="geometry" />
        </mxCell>
        <mxCell id="U4kdcHjhSib5QTSGowjK-19" value="Modeling and Data Analysis Projects" style="rounded=1;whiteSpace=wrap;html=1;" parent="1" vertex="1">
          <mxGeometry x="310" y="530" width="120" height="60" as="geometry" />
        </mxCell>
        <mxCell id="U4kdcHjhSib5QTSGowjK-23" value="separate read and write&amp;nbsp;" style="text;html=1;strokeColor=none;fillColor=none;align=center;verticalAlign=middle;whiteSpace=wrap;rounded=0;" parent="1" vertex="1">
          <mxGeometry x="900" y="70" width="150" height="40" as="geometry" />
        </mxCell>
        <mxCell id="U4kdcHjhSib5QTSGowjK-24" value="" style="rounded=0;whiteSpace=wrap;html=1;" parent="1" vertex="1">
          <mxGeometry x="1080" y="82" width="640" height="238" as="geometry" />
        </mxCell>
        <mxCell id="U4kdcHjhSib5QTSGowjK-31" value="" style="edgeStyle=orthogonalEdgeStyle;rounded=0;orthogonalLoop=1;jettySize=auto;html=1;fontColor=#FF0000;" parent="1" source="U4kdcHjhSib5QTSGowjK-25" target="U4kdcHjhSib5QTSGowjK-26" edge="1">
          <mxGeometry relative="1" as="geometry" />
        </mxCell>
        <mxCell id="U4kdcHjhSib5QTSGowjK-32" value="" style="edgeStyle=orthogonalEdgeStyle;rounded=0;orthogonalLoop=1;jettySize=auto;html=1;fontColor=#FF0000;" parent="1" source="U4kdcHjhSib5QTSGowjK-25" target="U4kdcHjhSib5QTSGowjK-26" edge="1">
          <mxGeometry relative="1" as="geometry" />
        </mxCell>
        <mxCell id="U4kdcHjhSib5QTSGowjK-35" value="" style="edgeStyle=orthogonalEdgeStyle;rounded=0;orthogonalLoop=1;jettySize=auto;html=1;fontColor=#FF0000;" parent="1" source="U4kdcHjhSib5QTSGowjK-25" target="U4kdcHjhSib5QTSGowjK-26" edge="1">
          <mxGeometry relative="1" as="geometry" />
        </mxCell>
        <mxCell id="U4kdcHjhSib5QTSGowjK-36" style="edgeStyle=orthogonalEdgeStyle;rounded=0;orthogonalLoop=1;jettySize=auto;html=1;fontColor=#FF0000;" parent="1" source="U4kdcHjhSib5QTSGowjK-25" target="U4kdcHjhSib5QTSGowjK-27" edge="1">
          <mxGeometry relative="1" as="geometry" />
        </mxCell>
        <mxCell id="U4kdcHjhSib5QTSGowjK-37" style="edgeStyle=orthogonalEdgeStyle;rounded=0;orthogonalLoop=1;jettySize=auto;html=1;fontColor=#FF0000;" parent="1" source="U4kdcHjhSib5QTSGowjK-25" target="U4kdcHjhSib5QTSGowjK-30" edge="1">
          <mxGeometry relative="1" as="geometry">
            <Array as="points">
              <mxPoint x="1270" y="210" />
              <mxPoint x="1580" y="210" />
            </Array>
          </mxGeometry>
        </mxCell>
        <mxCell id="U4kdcHjhSib5QTSGowjK-25" value="Master" style="rounded=1;whiteSpace=wrap;html=1;" parent="1" vertex="1">
          <mxGeometry x="1210" y="122" width="120" height="60" as="geometry" />
        </mxCell>
        <mxCell id="U4kdcHjhSib5QTSGowjK-26" value="Slave" style="rounded=1;whiteSpace=wrap;html=1;" parent="1" vertex="1">
          <mxGeometry x="1120" y="232" width="120" height="60" as="geometry" />
        </mxCell>
        <mxCell id="U4kdcHjhSib5QTSGowjK-27" value="Slave" style="rounded=1;whiteSpace=wrap;html=1;" parent="1" vertex="1">
          <mxGeometry x="1330" y="232" width="120" height="60" as="geometry" />
        </mxCell>
        <mxCell id="U4kdcHjhSib5QTSGowjK-28" value="&lt;h1&gt;Proposed Strategy&lt;/h1&gt;" style="text;html=1;strokeColor=none;fillColor=none;spacing=5;spacingTop=-20;whiteSpace=wrap;overflow=hidden;rounded=0;" parent="1" vertex="1">
          <mxGeometry x="1080" y="32" width="230" height="40" as="geometry" />
        </mxCell>
        <mxCell id="U4kdcHjhSib5QTSGowjK-30" value="Slave" style="rounded=1;whiteSpace=wrap;html=1;" parent="1" vertex="1">
          <mxGeometry x="1520" y="230" width="120" height="60" as="geometry" />
        </mxCell>
        <mxCell id="U4kdcHjhSib5QTSGowjK-42" value="MySQL Master - Slaves" style="text;html=1;strokeColor=none;fillColor=none;align=center;verticalAlign=middle;whiteSpace=wrap;rounded=0;fontColor=#FF0000;" parent="1" vertex="1">
          <mxGeometry x="1090" y="82" width="130" height="30" as="geometry" />
        </mxCell>
        <mxCell id="U4kdcHjhSib5QTSGowjK-46" style="edgeStyle=orthogonalEdgeStyle;rounded=0;orthogonalLoop=1;jettySize=auto;html=1;fontColor=#000000;" parent="1" source="U4kdcHjhSib5QTSGowjK-43" target="U4kdcHjhSib5QTSGowjK-25" edge="1">
          <mxGeometry relative="1" as="geometry" />
        </mxCell>
        <mxCell id="U4kdcHjhSib5QTSGowjK-43" value="&lt;font color=&quot;#000000&quot;&gt;TMB Monthly Updates&lt;/font&gt;" style="rounded=1;whiteSpace=wrap;html=1;fontColor=#FF0000;" parent="1" vertex="1">
          <mxGeometry x="900" y="122" width="120" height="60" as="geometry" />
        </mxCell>
        <mxCell id="U4kdcHjhSib5QTSGowjK-52" style="edgeStyle=orthogonalEdgeStyle;rounded=0;orthogonalLoop=1;jettySize=auto;html=1;fontColor=#000000;" parent="1" source="U4kdcHjhSib5QTSGowjK-49" target="U4kdcHjhSib5QTSGowjK-26" edge="1">
          <mxGeometry relative="1" as="geometry" />
        </mxCell>
        <mxCell id="U4kdcHjhSib5QTSGowjK-49" value="Modeling and Data Analysis Projects" style="rounded=1;whiteSpace=wrap;html=1;" parent="1" vertex="1">
          <mxGeometry x="1120" y="370" width="120" height="60" as="geometry" />
        </mxCell>
        <mxCell id="U4kdcHjhSib5QTSGowjK-53" style="edgeStyle=orthogonalEdgeStyle;rounded=0;orthogonalLoop=1;jettySize=auto;html=1;fontColor=#000000;" parent="1" source="U4kdcHjhSib5QTSGowjK-50" target="U4kdcHjhSib5QTSGowjK-27" edge="1">
          <mxGeometry relative="1" as="geometry" />
        </mxCell>
        <mxCell id="U4kdcHjhSib5QTSGowjK-50" value="&lt;b&gt;&lt;font color=&quot;#ff0000&quot;&gt;Production&lt;/font&gt;&lt;/b&gt;" style="rounded=1;whiteSpace=wrap;html=1;" parent="1" vertex="1">
          <mxGeometry x="1330" y="370" width="120" height="60" as="geometry" />
        </mxCell>
        <mxCell id="U4kdcHjhSib5QTSGowjK-55" style="edgeStyle=orthogonalEdgeStyle;rounded=0;orthogonalLoop=1;jettySize=auto;html=1;entryX=0.5;entryY=1;entryDx=0;entryDy=0;fontColor=#000000;" parent="1" source="U4kdcHjhSib5QTSGowjK-54" target="U4kdcHjhSib5QTSGowjK-30" edge="1">
          <mxGeometry relative="1" as="geometry" />
        </mxCell>
        <mxCell id="U4kdcHjhSib5QTSGowjK-54" value="UAT" style="rounded=1;whiteSpace=wrap;html=1;" parent="1" vertex="1">
          <mxGeometry x="1520" y="370" width="120" height="60" as="geometry" />
        </mxCell>
      </root>
    </mxGraphModel>
  </diagram>
</mxfile>
